<svg width="10" height="9" viewBox="0 0 10 9" fill="none" xmlns="http://www.w3.org/2000/svg">
<path d="M0.131338 0.0396213C0.0357642 0.10223 0.00390625 0.166997 0.00390625 0.292214C0.00390625 0.38073 0.015853 0.41959 0.0616488 0.486517C0.165187 0.637641 4.83039 5.67439 4.88813 5.69598C4.96579 5.72836 5.05339 5.72621 5.11711 5.6895C5.14698 5.67223 6.25404 4.48267 7.57814 3.04699L9.98541 0.434703L9.99337 0.318121C10.0013 0.223129 9.99536 0.190745 9.95554 0.128137C9.8978 0.0331445 9.78231 -0.0143516 9.67081 0.00723752C9.59714 0.0223499 9.39205 0.238241 7.29739 2.50942L5.00163 4.99649L2.71781 2.52022C1.42557 1.11908 0.408104 0.0331445 0.376246 0.020191C0.290628 -0.0121927 0.201027 -0.00571598 0.131338 0.0396213Z" fill="white"/>
<path d="M0.150132 3.31034C0.0187178 3.37295 -0.0410159 3.58236 0.0306646 3.72917C0.0625226 3.79178 4.77949 8.90841 4.86113 8.9667C4.91688 9.00556 5.03038 9.01203 5.114 8.97749C5.17175 8.9559 9.83695 3.91915 9.94049 3.76803C10.1097 3.51975 9.89071 3.19591 9.62589 3.3017C9.59403 3.31465 8.57458 4.40275 7.28034 5.80604L4.99055 8.2888L2.71072 5.81468C1.37666 4.36605 0.404996 3.32761 0.367164 3.31034C0.28752 3.27364 0.229777 3.27364 0.150132 3.31034Z" fill="white"/>
</svg>
