<svg width="7" height="8" viewBox="0 0 7 8" fill="none" xmlns="http://www.w3.org/2000/svg">
<path d="M0.0282125 7.8961C0.0769081 7.97256 0.127283 7.99805 0.224674 7.99805C0.293519 7.99805 0.323744 7.98849 0.375798 7.95185C0.493339 7.86902 4.41081 4.13686 4.4276 4.09067C4.45279 4.02854 4.45111 3.95846 4.42257 3.90748C4.40913 3.88359 3.48392 2.99794 2.36728 1.93866L0.335498 0.012846L0.244823 0.00647449C0.170941 0.000102997 0.145753 0.00488138 0.0970578 0.0367393C0.0231748 0.0829334 -0.0137663 0.175322 0.00302505 0.264524C0.0147791 0.323462 0.182695 0.48753 1.94917 2.16326L3.88356 3.99987L1.95756 5.82693C0.867791 6.86072 0.0231748 7.67469 0.0131001 7.70017C-0.0120873 7.76867 -0.00705004 7.84035 0.0282125 7.8961Z" fill="#878787"/>
<path d="M2.57471 7.87989C2.6234 7.98503 2.78628 8.03281 2.90046 7.97547C2.94916 7.94998 6.92876 4.1764 6.9741 4.1111C7.00432 4.06649 7.00936 3.9757 6.98249 3.9088C6.9657 3.8626 3.04823 0.130442 2.93069 0.0476108C2.73758 -0.0877857 2.48571 0.0874333 2.56799 0.299289C2.57806 0.324775 3.42436 1.14034 4.51581 2.17572L6.44684 4.00756L4.52253 5.83143C3.39581 6.89867 2.58814 7.676 2.57471 7.70627C2.54616 7.76998 2.54616 7.81618 2.57471 7.87989Z" fill="#878787"/>
</svg>
