<svg width="20" height="20" viewBox="0 0 20 20" fill="none" xmlns="http://www.w3.org/2000/svg">
<path d="M3.47556 0.0822124C3.09462 0.211405 2.80794 0.438467 1.84578 1.35063C0.820782 2.32152 0.577297 2.60339 0.333811 3.10841C0.0549806 3.6839 0 3.97359 0 4.85444C0 5.72746 0.082471 6.24031 0.353447 7.04285C1.52768 10.5467 4.31991 14.2619 7.63446 16.7282C10.8665 19.1281 14.3067 20.3926 16.2625 19.8915C17.0087 19.6996 17.2443 19.5313 18.5167 18.2629C19.4396 17.3468 19.6006 17.1706 19.7223 16.9318C19.9069 16.5717 19.9501 16.4307 19.9855 16.0549C20.0287 15.6438 19.9776 15.3502 19.8048 14.994C19.6752 14.7199 19.5692 14.6064 18.2064 13.2401C16.6788 11.7055 16.4431 11.5058 15.9837 11.3531C15.7677 11.2787 15.6656 11.2709 15.316 11.2827C14.5699 11.314 14.2753 11.4901 13.1679 12.5824L12.3746 13.3615L12.1272 13.2518C11.8405 13.1226 11.1257 12.6685 10.6662 12.3201C9.07181 11.1182 7.39097 9.20386 6.81367 7.92762L6.688 7.65357L7.43417 6.9489C7.8426 6.56133 8.25888 6.13852 8.35706 6.00933C8.9265 5.25376 8.98148 4.40032 8.51415 3.6056C8.36884 3.35896 6.54662 1.49548 5.81224 0.841698C5.04251 0.156595 4.71263 0 4.07642 0C3.8133 0.00391579 3.64443 0.0234909 3.47556 0.0822124ZM4.37096 1.33497C4.71263 1.51506 7.20639 3.87572 7.46559 4.2633C7.77583 4.73699 7.71693 4.91316 7.01396 5.62959C6.73513 5.91537 6.31492 6.3186 6.08322 6.52218C5.54519 7.00371 5.47843 7.12115 5.48236 7.54396C5.48236 7.85715 5.49021 7.88064 5.72191 8.34651C6.31885 9.56012 7.08465 10.5545 8.44738 11.8816C9.42525 12.8329 10.5563 13.706 11.3692 14.1366C11.5852 14.2501 11.864 14.4106 11.9897 14.4929C12.2842 14.6808 12.5042 14.716 12.7987 14.622C13.0029 14.5594 13.0854 14.485 13.9847 13.6003C14.9822 12.6137 15.1432 12.4884 15.4339 12.4884C15.7441 12.4884 15.8698 12.5941 17.3032 14.027C18.1868 14.9117 18.7091 15.4598 18.7563 15.5616C18.8505 15.7613 18.8505 16.1019 18.7563 16.2859C18.717 16.3602 18.2339 16.8653 17.6881 17.4055C16.6277 18.4508 16.4746 18.5682 15.9994 18.6935C15.6813 18.7796 14.9626 18.7796 14.4717 18.6935C13.1129 18.4625 11.0707 17.5386 9.30744 16.3642C6.14212 14.258 3.41273 11.0517 1.97538 7.75145C1.39022 6.41256 1.13496 5.01104 1.31954 4.17717C1.44913 3.58994 1.5316 3.48032 2.58802 2.42331C3.1339 1.87523 3.62087 1.4211 3.71119 1.37412C3.88792 1.28408 4.23351 1.2645 4.37096 1.33497Z" fill="#112D55"/>
<path d="M11.967 1.52999C11.881 1.63169 11.8654 1.68254 11.885 1.79207C11.924 2.03068 12.0061 2.07762 12.471 2.11282C13.948 2.23017 15.0928 2.71522 16.0735 3.64619C17.1323 4.64757 17.7262 5.89538 17.8513 7.37007C17.8708 7.60477 17.8864 7.82382 17.8864 7.8512C17.8864 7.87858 17.9294 7.94508 17.9841 7.99593C18.117 8.13284 18.3475 8.12893 18.4764 7.99202C18.5663 7.89814 18.5702 7.86685 18.5585 7.49524C18.496 5.41425 17.3707 3.4819 15.5616 2.35534C14.6161 1.76469 13.4009 1.40482 12.3616 1.40482C12.0842 1.40482 12.0686 1.40873 11.967 1.52999Z" fill="#112D55"/>
<path d="M11.9978 3.49413C11.9119 3.56845 11.8884 3.61931 11.8884 3.7523C11.8884 4.01047 12.0056 4.08479 12.4511 4.12C14.2875 4.2569 15.6901 5.65336 15.8503 7.49966C15.8816 7.83997 15.9011 7.92211 15.9754 8.00035C16.1004 8.13334 16.3544 8.13334 16.4794 7.99643C16.5575 7.91429 16.5654 7.86344 16.5615 7.61701C16.5263 5.55166 14.9517 3.77186 12.8848 3.45893C12.3299 3.37287 12.1307 3.3807 11.9978 3.49413Z" fill="#112D55"/>
<path d="M12.1034 5.42307C11.9159 5.4974 11.8299 5.71254 11.9081 5.9003C11.9667 6.04503 12.0605 6.08805 12.4121 6.13499C12.7794 6.18193 13.1232 6.35013 13.3694 6.60048C13.6741 6.9095 13.8031 7.18331 13.8617 7.63706C13.9047 7.97347 13.9984 8.09473 14.2212 8.09473C14.3345 8.09473 14.4009 8.06735 14.4751 7.99302C14.5728 7.89523 14.5728 7.87567 14.5533 7.57448C14.4829 6.43619 13.5687 5.50913 12.4317 5.41916C12.2832 5.40743 12.1347 5.40743 12.1034 5.42307Z" fill="#112D55"/>
</svg>
