<svg width="103" height="82" viewBox="0 0 103 82" fill="none" xmlns="http://www.w3.org/2000/svg">
<rect width="100" height="79" transform="translate(1.17578 1.1792)" fill="#112D55"/>
<path d="M0 48.5473V81.3584H51.7601H102.353V45.9831V0.000190735H50.5662H0V48.5473ZM94.1464 2.79195C96.3267 5.16395 97.313 8.16152 97.313 12.3581C97.313 18.0926 96.5084 19.5262 88.3322 28.8839C84.8282 32.898 80.5973 37.7463 78.9361 39.6751L75.9252 43.168L77.4047 44.5495C78.2353 45.3314 78.9881 45.957 79.0919 45.957C79.1957 45.9309 82.2066 42.5424 85.7626 38.3979C89.3445 34.2795 92.3295 30.8649 92.4333 30.8649C92.8745 30.8127 95.7557 34.8269 96.3008 36.2344C97.1054 38.2936 97.313 43.5068 96.6901 45.9831C96.0931 48.3029 94.8213 50.7531 93.3158 52.3953C91.992 53.855 89.3705 55.5753 87.5795 56.1488L86.5413 56.4876L88.2284 56.7743C92.589 57.5302 95.3404 60.215 96.4046 64.7765C96.6901 65.9756 96.7939 68.0608 96.7939 72.5963V78.8H50.5662C6.85616 78.8 4.33842 78.7739 4.67585 78.3569C5.01328 77.9398 36.1086 42.1775 61.5715 12.9055L71.1753 1.90572L72.3693 2.60949C73.0441 3.02654 74.4977 3.86065 75.5878 4.5123C76.678 5.16395 77.5864 5.76346 77.5864 5.86772C77.5864 5.97198 77.1971 6.67577 76.7299 7.43168C76.2367 8.18758 75.7176 9.20415 75.5619 9.6994C75.1725 10.7942 75.1725 13.1922 75.5359 14.4955C75.8214 15.5121 77.8719 17.9362 78.3391 17.7798C78.5468 17.6756 84.8801 10.5335 90.6683 3.80853C91.6806 2.6095 92.6409 1.64506 92.7967 1.64506C92.9524 1.64506 93.5754 2.16637 94.1464 2.79195Z" fill="#F5F5F5"/>
<path d="M91.5256 5.5547C90.8508 6.31061 90.3057 7.01439 90.3057 7.11865C90.3057 7.22291 90.4874 7.82243 90.721 8.44801C90.9805 9.15179 91.1363 10.4811 91.1622 11.8105C91.1882 13.7133 91.0844 14.2607 90.4614 15.6161C89.6049 17.5189 88.359 18.7962 86.4123 19.8127C85.1145 20.4644 84.7251 20.5426 82.2593 20.5426C79.8194 20.5426 79.3782 20.4644 77.9506 19.8127C76.0299 18.9265 74.7061 17.6232 73.9015 15.8507C73.4343 14.782 73.3045 14.0782 73.3045 12.0712C73.3045 9.9077 73.4083 9.38638 74.0312 8.05702C74.4206 7.22291 74.7321 6.49307 74.7321 6.44094C74.7321 6.38881 74.0053 5.94569 73.1487 5.42437C71.3318 4.35567 71.3837 4.32961 70.1897 6.72766C68.5805 9.98589 68.6324 14.8863 70.3714 18.5355C72.396 22.8364 76.8085 25.3647 82.2593 25.3647C89.5789 25.3647 94.6404 20.8032 95.3931 13.5308C95.6786 10.7418 94.6923 6.6234 93.3425 4.92912L92.7456 4.19928L91.5256 5.5547Z" fill="#F5F5F5"/>
<path d="M50.1505 28.8054C40.9102 39.4403 27.7505 54.5324 20.95 62.3522C14.1235 70.1719 8.54297 76.6623 8.54297 76.7666C8.54297 76.8969 13.241 76.9751 19.0033 76.9751H29.4636L48.9046 55.6793C59.6245 43.9757 68.8908 33.784 69.5397 33.0281C70.1886 32.2722 70.8375 31.6466 70.9673 31.6466C71.2269 31.6205 76.7555 34.8527 77.1708 35.2697C77.2746 35.4001 76.9891 36.156 76.47 37.0161C75.4837 38.6583 74.9126 40.2222 75.0424 40.9C75.0943 41.1346 77.5342 38.528 81.4016 34.0707C84.8538 30.0826 87.657 26.7983 87.6311 26.7723C87.6051 26.7201 86.8264 26.8765 85.892 27.059C78.7022 28.6229 71.4085 25.4429 68.6053 19.552C67.4892 17.154 66.8143 13.7133 67.022 11.211C67.0998 10.2465 67.1258 9.46455 67.0739 9.46455C67.022 9.46455 59.4168 18.1705 50.1505 28.8054Z" fill="#F5F5F5"/>
<path d="M91.239 35.1656L89.9931 36.5992L90.4603 38.085C91.8879 42.4901 90.2008 47.3644 86.6448 49.1369C83.1667 50.8833 78.3389 50.4402 75.6135 48.1203C72.94 45.8265 72.1873 41.3171 73.8485 37.6158C74.2378 36.7556 74.4974 35.9997 74.4454 35.9736C73.2774 35.0874 71.5384 34.2011 71.2269 34.3054C71.0192 34.4097 70.552 35.0613 70.1887 35.7651C68.2419 39.675 68.2939 44.7317 70.3703 48.6156C74.134 55.7055 85.0096 57.2173 91.2909 51.561C94.2499 48.8762 95.7813 43.6891 94.9248 39.284C94.5095 37.2248 93.8087 35.3741 92.9521 34.3054L92.5109 33.732L91.239 35.1656Z" fill="#F5F5F5"/>
<path d="M85.3481 58.7552C82.7784 59.1462 80.7019 60.8926 79.6377 63.5774C79.1186 64.9068 79.0407 65.5845 79.0148 68.556V72.0227H76.2375H73.4342V67.3309V62.639H71.3577H69.2812L69.3332 69.7289L69.411 76.8449L81.9478 76.9231C93.7059 76.9752 94.4846 76.9492 94.6663 76.5321C94.7701 76.2715 94.848 73.8213 94.848 71.1104C94.822 66.6532 94.7701 66.0015 94.251 64.5158C93.2647 61.7528 91.8111 59.9803 89.8644 59.2244C88.7223 58.7813 86.6718 58.5728 85.3481 58.7552ZM88.93 64.0987C90.3057 64.985 91.0065 67.4612 90.695 70.3024L90.5133 72.0227H86.9573H83.3754L83.1937 71.0322C82.5708 67.2787 83.609 64.3333 85.7633 63.6817C86.6978 63.3949 88.1513 63.5774 88.93 64.0987Z" fill="#F5F5F5"/>
</svg>
