<svg width="22" height="22" viewBox="0 0 22 22" fill="none" xmlns="http://www.w3.org/2000/svg">
<path d="M12 1C12 0.447715 11.5523 -1.19209e-07 11 -1.19209e-07C10.4477 -1.19209e-07 10 0.447715 10 1H11L12 1ZM10.2929 16.7071C10.6834 17.0976 11.3166 17.0976 11.7071 16.7071L18.0711 10.3431C18.4616 9.95262 18.4616 9.31946 18.0711 8.92893C17.6805 8.53841 17.0474 8.53841 16.6569 8.92893L11 14.5858L5.34315 8.92893C4.95262 8.53841 4.31946 8.53841 3.92893 8.92893C3.53841 9.31946 3.53841 9.95262 3.92893 10.3431L10.2929 16.7071ZM11 1H10V16H11H12V1L11 1Z" fill="white"/>
<path d="M1 21H21" stroke="white" stroke-width="2" stroke-linecap="round"/>
</svg>
