<svg width="17" height="20" viewBox="0 0 17 20" fill="none" xmlns="http://www.w3.org/2000/svg">
<path d="M0.0750027 19.7398C0.193263 19.9309 0.315601 19.9946 0.552123 19.9946C0.719319 19.9946 0.792722 19.9707 0.919139 19.8791C1.2046 19.6721 10.7185 10.3417 10.7592 10.2262C10.8204 10.0709 10.8163 9.89565 10.747 9.76822C10.7144 9.70849 8.46743 7.49436 5.75559 4.84616L0.821268 0.0316277L0.601058 0.0156994C0.421628 -0.000230789 0.360459 0.0117168 0.242199 0.091362C0.0627689 0.206846 -0.0269461 0.437817 0.013833 0.660822C0.0423784 0.808167 0.450174 1.21834 4.74018 5.40766L9.43798 9.99919L4.76057 14.5668C2.11398 17.1513 0.0627689 19.1862 0.0383005 19.2499C-0.0228682 19.4212 -0.0106344 19.6004 0.0750027 19.7398Z" fill="#112D55"/>
<path d="M6.25286 19.6997C6.37112 19.9626 6.76668 20.082 7.04398 19.9387C7.16224 19.875 16.827 10.441 16.9371 10.2777C17.0105 10.1662 17.0227 9.93925 16.9575 9.77199C16.9167 9.65651 7.40284 0.326103 7.11738 0.119028C6.64842 -0.219463 6.03673 0.218584 6.23655 0.748222C6.26101 0.811937 8.3163 2.85085 10.967 5.43931L15.6566 10.0189L10.9833 14.5786C8.24698 17.2467 6.28548 19.19 6.25286 19.2657C6.18353 19.425 6.18353 19.5404 6.25286 19.6997Z" fill="#112D55"/>
</svg>
