<svg width="111" height="88" viewBox="0 0 111 88" fill="none" xmlns="http://www.w3.org/2000/svg">
<rect width="108" height="85" transform="translate(1.27051 1.26855)" fill="white"/>
<path d="M0 52.234V87.5371H55.901H110.541V49.475V-0.000205994H54.6115H0V52.234ZM101.678 3.00359C104.033 5.55573 105.098 8.78097 105.098 13.2963C105.098 19.4663 104.229 21.0088 95.3988 31.0772C91.6144 35.3962 87.0451 40.6127 85.251 42.688L81.9992 46.4461L83.5971 47.9325C84.4941 48.7739 85.3071 49.447 85.4192 49.447C85.5313 49.419 88.7831 45.773 92.6236 41.3138C96.4921 36.8826 99.7158 33.2086 99.8279 33.2086C100.305 33.1525 103.416 37.4716 104.005 38.986C104.874 41.2016 105.098 46.8107 104.425 49.475C103.781 51.9711 102.407 54.6074 100.781 56.3742C99.3514 57.9448 96.5201 59.7958 94.5859 60.4128L93.4646 60.7774L95.2867 61.0859C99.9961 61.8992 102.968 64.7879 104.117 69.6959C104.425 70.986 104.537 73.2296 104.537 78.1095V84.7844H54.6115C7.40465 84.7844 4.6855 84.7563 5.04992 84.3076C5.41434 83.8589 38.9973 45.3804 66.4973 13.8853L76.8693 2.05004L78.1588 2.80727C78.8876 3.256 80.4575 4.15345 81.6348 4.85459C82.8122 5.55573 83.7933 6.20078 83.7933 6.31296C83.7933 6.42514 83.3728 7.18237 82.8683 7.99569C82.3356 8.80901 81.775 9.90279 81.6068 10.4357C81.1863 11.6136 81.1863 14.1938 81.5788 15.596C81.8871 16.6898 84.1017 19.298 84.6063 19.1298C84.8305 19.0176 91.6705 11.3331 97.9217 4.09737C99.015 2.80727 100.052 1.76958 100.22 1.76958C100.389 1.76958 101.061 2.3305 101.678 3.00359Z" fill="#112D55"/>
<path d="M98.8469 5.97641C98.118 6.78973 97.5293 7.54696 97.5293 7.65914C97.5293 7.77132 97.7256 8.41637 97.9778 9.08946C98.2582 9.84669 98.4264 11.277 98.4544 12.7073C98.4824 14.7547 98.3703 15.3436 97.6975 16.802C96.7724 18.8493 95.4269 20.2235 93.3244 21.3173C91.9228 22.0185 91.5023 22.1026 88.8392 22.1026C86.2042 22.1026 85.7276 22.0185 84.1858 21.3173C82.1114 20.3638 80.6818 18.9615 79.8128 17.0544C79.3082 15.9045 79.168 15.1473 79.168 12.9878C79.168 10.66 79.2801 10.0991 79.9529 8.66878C80.3734 7.77132 80.7098 6.98605 80.7098 6.92996C80.7098 6.87387 79.9249 6.39709 78.9998 5.83618C77.0375 4.68631 77.0936 4.65827 75.8041 7.23846C74.0661 10.7442 74.1222 16.0167 76.0003 19.9431C78.1869 24.5706 82.9524 27.291 88.8392 27.291C96.7444 27.291 102.211 22.383 103.024 14.5583C103.332 11.5575 102.267 7.12628 100.809 5.30332L100.164 4.51804L98.8469 5.97641Z" fill="#112D55"/>
<path d="M54.1629 30.9931C44.1833 42.4357 29.9708 58.6741 22.6263 67.0877C15.2537 75.5014 9.22675 82.4847 9.22675 82.5969C9.22675 82.7372 14.3006 82.8213 20.5239 82.8213H31.821L52.8174 59.9081C64.3948 47.3156 74.4024 36.3498 75.1032 35.5365C75.804 34.7232 76.5049 34.0501 76.645 34.0501C76.9253 34.0221 82.8963 37.4997 83.3448 37.9484C83.4569 38.0887 83.1486 38.902 82.5879 39.8275C81.5227 41.5943 80.906 43.2771 81.0461 44.0063C81.1022 44.2587 83.7373 41.4541 87.9141 36.6583C91.6424 32.3674 94.6699 28.8336 94.6419 28.8056C94.6139 28.7495 93.7729 28.9178 92.7637 29.1141C84.9987 30.7968 77.1216 27.3753 74.0941 21.037C72.8887 18.4568 72.1598 14.7548 72.3841 12.0624C72.4682 11.0247 72.4962 10.1833 72.4401 10.1833C72.3841 10.1833 64.1705 19.5506 54.1629 30.9931Z" fill="#112D55"/>
<path d="M98.5385 37.8364L97.1929 39.3789L97.6975 40.9775C99.2393 45.7172 97.4172 50.9617 93.5767 52.8688C89.8203 54.7478 84.6063 54.2711 81.6629 51.775C78.7755 49.307 77.9626 44.4551 79.7567 40.4727C80.1772 39.5472 80.4575 38.7338 80.4014 38.7058C79.1399 37.7523 77.2618 36.7987 76.9254 36.9109C76.7011 37.0231 76.1965 37.7242 75.8041 38.4814C73.7016 42.6883 73.7577 48.1291 76.0003 52.3079C80.065 59.9363 91.8107 61.5629 98.5945 55.477C101.79 52.5883 103.444 47.0073 102.519 42.2676C102.071 40.052 101.314 38.0608 100.389 36.9109L99.9121 36.2939L98.5385 37.8364Z" fill="#112D55"/>
<path d="M92.175 63.2171C89.3998 63.6378 87.1572 65.5169 86.0079 68.4056C85.4472 69.8359 85.3631 70.5651 85.3351 73.7623V77.4923H82.3356H79.3081V72.4441V67.3959H77.0655H74.8229L74.8789 75.0243L74.963 82.6807L88.5028 82.7649C101.201 82.821 102.042 82.7929 102.239 82.3442C102.351 82.0637 102.435 79.4275 102.435 76.5107C102.407 71.7149 102.351 71.0138 101.79 69.4152C100.725 66.4424 99.1551 64.5353 97.0527 63.722C95.8193 63.2452 93.6047 63.0208 92.175 63.2171ZM96.0435 68.9665C97.5292 69.92 98.2861 72.5843 97.9497 75.6413L97.7535 77.4923H93.913H90.0445L89.8483 76.4266C89.1755 72.388 90.2968 69.2189 92.6235 68.5177C93.6327 68.2092 95.2025 68.4056 96.0435 68.9665Z" fill="#112D55"/>
</svg>
