<svg width="87" height="69" viewBox="0 0 87 69" fill="none" xmlns="http://www.w3.org/2000/svg">
<rect width="85" height="67" transform="translate(0.999939 1)" fill="#112D55"/>
<path d="M0 41.1728V69H43.9961H87V38.9981V0H42.9812H0V41.1728ZM80.0244 2.36769C81.8777 4.37939 82.7161 6.92163 82.7161 10.4808C82.7161 15.3442 82.0321 16.5601 75.0824 24.4963C72.1039 27.9007 68.5077 32.0125 67.0957 33.6484L64.5364 36.6106L65.794 37.7823C66.5 38.4455 67.1398 38.976 67.2281 38.976C67.3163 38.9539 69.8756 36.0801 72.8982 32.5652C75.9428 29.0723 78.48 26.1764 78.5683 26.1764C78.9434 26.1322 81.3923 29.5366 81.8556 30.7303C82.5396 32.4767 82.7161 36.898 82.1866 38.9981C81.6791 40.9656 80.5981 43.0436 79.3184 44.4363C78.1932 45.6743 75.9649 47.1333 74.4426 47.6197L73.5601 47.907L74.9941 48.1502C78.7007 48.7913 81.0393 51.0683 81.9439 54.9369C82.1866 55.9538 82.2748 57.7223 82.2748 61.5689V66.8302H42.9812C5.82774 66.8302 3.68766 66.8081 3.97447 66.4544C4.26129 66.1007 30.6923 35.7706 52.3358 10.945L60.499 1.61607L61.5139 2.21294C62.0875 2.56665 63.323 3.27406 64.2496 3.82672C65.1763 4.37938 65.9485 4.88783 65.9485 4.97626C65.9485 5.06468 65.6175 5.66156 65.2204 6.30265C64.8012 6.94374 64.3599 7.80589 64.2276 8.22591C63.8966 9.15438 63.8966 11.1882 64.2055 12.2935C64.4482 13.1557 66.1911 15.2116 66.5883 15.0789C66.7648 14.9905 72.1481 8.93332 77.068 3.22985C77.9285 2.21295 78.7448 1.39501 78.8772 1.39501C79.0096 1.39501 79.5391 1.83714 80.0244 2.36769Z" fill="white"/>
<path d="M77.7961 4.71128C77.2225 5.35237 76.7592 5.94925 76.7592 6.03767C76.7592 6.1261 76.9136 6.63455 77.1122 7.1651C77.3328 7.76198 77.4652 8.88941 77.4872 10.0168C77.5093 11.6306 77.421 12.0948 76.8915 13.2444C76.1635 14.8582 75.1045 15.9414 73.4498 16.8035C72.3466 17.3562 72.0157 17.4225 69.9197 17.4225C67.8459 17.4225 67.4708 17.3562 66.2573 16.8035C64.6247 16.0519 63.4995 14.9466 62.8156 13.4433C62.4184 12.537 62.3081 11.9401 62.3081 10.2379C62.3081 8.40306 62.3964 7.96093 62.9259 6.8335C63.2568 6.1261 63.5216 5.50712 63.5216 5.4629C63.5216 5.41869 62.9038 5.04288 62.1758 4.60075C60.6314 3.69438 60.6755 3.67228 59.6606 5.70607C58.2927 8.46938 58.3369 12.6254 59.815 15.7203C61.5359 19.3679 65.2866 21.5122 69.9197 21.5122C76.1414 21.5122 80.4436 17.6436 81.0834 11.4759C81.3261 9.11047 80.4878 5.61765 79.3405 4.18073L78.8331 3.56174L77.7961 4.71128Z" fill="white"/>
<path d="M42.6282 24.4299C34.7739 33.4494 23.5881 46.249 17.8077 52.881C12.0052 59.5129 7.26178 65.0174 7.26178 65.1059C7.26178 65.2164 11.2551 65.2827 16.153 65.2827H25.0443L41.5692 47.2217C50.6811 37.2959 58.5574 28.6523 59.109 28.0112C59.6606 27.3701 60.2121 26.8395 60.3225 26.8395C60.5431 26.8174 65.2424 29.5586 65.5954 29.9123C65.6837 30.0229 65.441 30.664 64.9997 31.3935C64.1614 32.7862 63.676 34.1126 63.7863 34.6873C63.8304 34.8863 65.9043 32.6757 69.1916 28.8954C72.126 25.5132 74.5087 22.7277 74.4867 22.7056C74.4646 22.6614 73.8027 22.7941 73.0085 22.9488C66.8971 24.2752 60.6975 21.5782 58.3148 16.5821C57.3661 14.5483 56.7924 11.6303 56.9689 9.50806C57.0351 8.69012 57.0572 8.02693 57.0131 8.02693C56.9689 8.02693 50.5046 15.4105 42.6282 24.4299Z" fill="white"/>
<path d="M77.5534 29.824L76.4944 31.0398L76.8915 32.2999C78.105 36.0359 76.6709 40.1698 73.6483 41.673C70.6919 43.1542 66.5883 42.7784 64.2717 40.8109C61.9992 38.8655 61.3594 35.0411 62.7714 31.902C63.1024 31.1725 63.323 30.5314 63.2789 30.5093C62.2861 29.7576 60.8079 29.006 60.5431 29.0944C60.3666 29.1829 59.9695 29.7355 59.6606 30.3324C58.0059 33.6484 58.05 37.937 59.815 41.2309C63.0141 47.2439 72.2584 48.526 77.5975 43.7289C80.1127 41.452 81.4144 37.0528 80.6863 33.3168C80.3333 31.5704 79.7376 30.0008 79.0095 29.0944L78.6345 28.6081L77.5534 29.824Z" fill="white"/>
<path d="M72.5451 49.8304C70.3609 50.162 68.5959 51.6431 67.6914 53.9201C67.2501 55.0475 67.1839 55.6223 67.1619 58.1424V61.0826H64.8012H62.4184V57.1034V53.1243H60.6534H58.8884L58.9325 59.1372L58.9987 65.1723L69.6549 65.2386C79.6493 65.2828 80.3112 65.2607 80.4656 64.907C80.5539 64.686 80.6201 62.6079 80.6201 60.3089C80.598 56.5287 80.5539 55.976 80.1126 54.7159C79.2743 52.3726 78.0387 50.8694 76.384 50.2283C75.4133 49.8525 73.6703 49.6757 72.5451 49.8304ZM75.5898 54.3622C76.7591 55.1138 77.3548 57.214 77.0901 59.6236L76.9356 61.0826H73.913H70.8684L70.7139 60.2426C70.1844 57.0592 71.0669 54.5612 72.8981 54.0085C73.6924 53.7654 74.9279 53.9201 75.5898 54.3622Z" fill="white"/>
</svg>
