<svg width="11" height="14" viewBox="0 0 11 14" fill="none" xmlns="http://www.w3.org/2000/svg">
<path d="M0.049077 13.8177C0.125599 13.9515 0.204759 13.9961 0.357802 13.9961C0.465988 13.9961 0.513484 13.9794 0.595283 13.9153C0.77999 13.7703 6.93602 7.23902 6.9624 7.15818C7.00198 7.04946 6.99935 6.92681 6.95449 6.83761C6.93338 6.79579 5.47947 5.2459 3.72475 3.39217L0.531955 0.0219917L0.389466 0.0108414C0.273365 -0.00030899 0.233785 0.00805378 0.157263 0.0638046C0.0411611 0.144645 -0.0168896 0.306324 0.00949717 0.462428C0.0279679 0.565568 0.291835 0.852688 3.06772 3.78521L6.10747 6.99929L3.08091 10.1966C1.36841 12.0058 0.0411611 13.4302 0.0253291 13.4748C-0.0142508 13.5947 -0.00633478 13.7201 0.049077 13.8177Z" fill="white"/>
<path d="M4.04597 13.7898C4.12249 13.9738 4.37844 14.0574 4.55787 13.9571C4.63439 13.9125 10.8881 7.30871 10.9593 7.19442C11.0068 7.11637 11.0147 6.95747 10.9725 6.8404C10.9461 6.75956 4.79007 0.228272 4.60537 0.0833187C4.30192 -0.153625 3.90612 0.153008 4.03541 0.523756C4.05125 0.568357 5.38114 1.99559 7.09628 3.80752L10.1308 7.01323L7.10683 10.205C5.33628 12.0727 4.06708 13.433 4.04597 13.486C4.00111 13.5975 4.00111 13.6783 4.04597 13.7898Z" fill="white"/>
</svg>
