<svg width="11" height="14" viewBox="0 0 11 14" fill="none" xmlns="http://www.w3.org/2000/svg">
<path d="M10.9509 0.182311C10.8744 0.0485074 10.7952 0.00390625 10.6422 0.00390625C10.534 0.00390625 10.4865 0.0206317 10.4047 0.0847459C10.22 0.2297 4.06398 6.76098 4.0376 6.84182C3.99802 6.95054 4.00065 7.07319 4.04551 7.16239C4.06662 7.20421 5.52053 8.7541 7.27525 10.6078L10.468 13.978L10.6105 13.9892C10.7266 14.0003 10.7662 13.9919 10.8427 13.9362C10.9588 13.8554 11.0169 13.6937 10.9905 13.5376C10.972 13.4344 10.7082 13.1473 7.93228 10.2148L4.89253 7.00071L7.91909 3.80337C9.63159 1.99423 10.9588 0.569784 10.9747 0.525182C11.0143 0.405317 11.0063 0.279876 10.9509 0.182311Z" fill="#F5F5F5"/>
<path d="M6.95403 0.210185C6.87751 0.026205 6.62156 -0.0574222 6.44213 0.0429304C6.36561 0.0875316 0.111948 6.69129 0.0407033 6.80558C-0.00679283 6.88363 -0.0147089 7.04253 0.0275099 7.1596C0.0538967 7.24044 6.20993 13.7717 6.39463 13.9167C6.69808 14.1536 7.09388 13.847 6.96459 13.4762C6.94875 13.4316 5.61886 12.0044 3.90372 10.1925L0.869247 6.98677L3.89317 3.795C5.66372 1.92733 6.93292 0.566994 6.95403 0.51403C6.99889 0.402527 6.99889 0.321688 6.95403 0.210185Z" fill="#F5F5F5"/>
</svg>
