<svg width="17" height="20" viewBox="0 0 17 20" fill="none" xmlns="http://www.w3.org/2000/svg">
<path d="M0.0735378 19.7398C0.191798 19.9309 0.314137 19.9946 0.550658 19.9946C0.717854 19.9946 0.791257 19.9707 0.917674 19.8791C1.20313 19.6721 10.717 10.3417 10.7578 10.2262C10.8189 10.0709 10.8149 9.89565 10.7455 9.76822C10.7129 9.70849 8.46596 7.49436 5.75412 4.84616L0.819803 0.0316277L0.599593 0.0156994C0.420163 -0.000230789 0.358994 0.0117168 0.240734 0.091362C0.0613041 0.206846 -0.0284109 0.437817 0.0123682 0.660822C0.0409136 0.808167 0.448709 1.21834 4.73871 5.40766L9.43652 9.99919L4.7591 14.5668C2.11251 17.1513 0.0613041 19.1862 0.0368357 19.2499C-0.024333 19.4212 -0.0120993 19.6004 0.0735378 19.7398Z" fill="#112D55"/>
<path d="M6.25286 19.6997C6.37112 19.9626 6.76668 20.082 7.04398 19.9387C7.16224 19.875 16.827 10.441 16.9371 10.2777C17.0105 10.1662 17.0227 9.93925 16.9575 9.77199C16.9167 9.65651 7.40284 0.326103 7.11738 0.119028C6.64842 -0.219463 6.03673 0.218584 6.23655 0.748222C6.26101 0.811937 8.3163 2.85085 10.967 5.43931L15.6566 10.0189L10.9833 14.5786C8.24698 17.2467 6.28548 19.19 6.25286 19.2657C6.18353 19.425 6.18353 19.5404 6.25286 19.6997Z" fill="#112D55"/>
</svg>
