<svg width="17" height="20" viewBox="0 0 17 20" fill="none" xmlns="http://www.w3.org/2000/svg">
<path d="M16.9265 0.260235C16.8082 0.069087 16.6859 0.00537109 16.4493 0.00537109C16.2821 0.00537109 16.2087 0.0292646 16.0823 0.120856C15.7969 0.327933 6.28301 9.65834 6.24223 9.77382C6.18106 9.92913 6.18514 10.1043 6.25446 10.2318C6.28709 10.2915 8.53404 12.5056 11.2459 15.1538L16.1802 19.9684L16.4004 19.9843C16.5798 20.0002 16.641 19.9883 16.7593 19.9086C16.9387 19.7932 17.0284 19.5622 16.9876 19.3392C16.9591 19.1918 16.5513 18.7817 12.2613 14.5923L7.56348 10.0008L12.2409 5.43317C14.8875 2.8487 16.9387 0.813767 16.9632 0.750051C17.0243 0.578815 17.0121 0.399613 16.9265 0.260235Z" fill="#112D55"/>
<path d="M10.7471 0.300264C10.6289 0.0374357 10.2333 -0.0820317 9.95602 0.0613292C9.83776 0.125045 0.17301 9.55899 0.0629051 9.72226C-0.010498 9.83376 -0.0227319 10.0608 0.0425154 10.228C0.0832949 10.3435 9.59716 19.6739 9.88262 19.881C10.3516 20.2195 10.9633 19.7814 10.7635 19.2518C10.739 19.1881 8.6837 17.1492 6.03303 14.5607L1.34338 9.98111L6.01672 5.42143C8.75302 2.75333 10.7145 0.809992 10.7471 0.734329C10.8165 0.575039 10.8165 0.459554 10.7471 0.300264Z" fill="#112D55"/>
</svg>
