<svg width="153" height="45" viewBox="0 0 153 45" fill="none" xmlns="http://www.w3.org/2000/svg">
<g clip-path="url(#clip0_427_9018)">
<path d="M145.871 39.1842C148.873 39.1842 150.999 38.6323 152.583 37.4437V32.0521C150.957 33.1984 148.998 33.9201 146.246 33.9201C141.619 33.9201 139.701 30.2691 139.701 24.4955C139.701 18.4248 142.036 15.3257 146.288 15.3257C148.789 15.3257 151.249 16.2172 152.541 17.0663V11.4625C151.166 10.6984 148.789 10.1465 145.538 10.1465C137.241 10.1465 132.947 16.2172 132.947 24.7078C132.989 34.005 137.2 39.1842 145.871 39.1842ZM105.307 36.722V31.3304C103.306 32.7314 99.8877 33.9625 96.761 33.9625C92.0084 33.9625 90.2157 31.6701 89.9239 27.0003H105.599V23.5191C105.599 13.7974 101.388 10.1465 94.9266 10.1465C87.0056 10.1465 83.2536 16.3021 83.2536 24.7503C83.2536 34.472 87.9645 39.1842 96.219 39.1842C100.346 39.1842 103.39 38.038 105.307 36.722ZM45.8165 10.6559V21.6937H37.1451V10.6559H30.6416V38.6323H37.1451V26.9578H45.8165V38.6323H52.3201V10.6559H45.8165ZM81.6277 33.3682H78.7511V10.6559H59.8242V13.0333C59.8242 19.8682 59.4073 28.6984 57.1144 33.3682H55.0299V45.0003H61.0332V38.6323H75.5827V45.0003H81.586V33.3682H81.6277ZM126.027 38.6323H133.406L122.984 23.5616L132.155 10.6559H125.61L116.438 23.5616V10.6559H109.935V38.6323H116.438V24.8776L126.027 38.6323ZM94.7599 15.3257C97.9699 15.3257 98.9705 18.0427 98.9705 21.5663V22.1182H89.9239C90.0906 17.6606 91.6748 15.3257 94.7599 15.3257ZM72.2476 33.3682H63.0759C64.8686 29.1653 65.3689 21.5238 65.3689 16.6842V15.8352H72.2476V33.3682Z" fill="#1D1D1D"/>
<path d="M25.2221 38.6321H18.5935V5.2217H15.6335C10.2139 5.2217 7.37902 7.98113 7.37902 12.0991C7.37902 16.7689 9.33842 18.934 13.3823 21.6934L16.7174 23.9858L7.12888 38.6321H0L8.6297 25.5566C3.66867 21.9481 0.875477 18.4245 0.875477 12.4811C0.875477 5.05189 5.96158 0 15.5918 0H25.1804V38.6321H25.2221Z" fill="#FC3F1D"/>
</g>
<defs>
<clipPath id="clip0_427_9018">
<rect width="153" height="45" fill="white"/>
</clipPath>
</defs>
</svg>
